<?xml version="1.0" encoding="utf-8"?>
<!-- Generator: Adobe Illustrator 24.0.0, SVG Export Plug-In . SVG Version: 6.00 Build 0)  -->
<svg version="1.1" id="legalwebLogoIcon" xmlns="http://www.w3.org/2000/svg" xmlns:xlink="http://www.w3.org/1999/xlink" x="0px"
	 y="0px" viewBox="0 0 99.8 99.8" enable-background="new 0 0 99.8 99.8" xml:space="preserve">
	 <style type="text/css">

	 	#gMoveT{
	 		-webkit-animation: anim1 4s infinite linear;
	 		   -moz-animation: anim1 4s infinite linear;
	 		     -o-animation: anim1 4s infinite linear;
	 		        animation: anim1 4s infinite linear;
	 	}
	 	@-webkit-keyframes anim1 {
	 		0%{
	 			-webkit-transform: translate(0px, 0px);
	 			        transform: translate(0px, 0px)
	 		}
	 		48%,100%{
	 			-webkit-transform: translate(300px, 0px);
	 			        transform: translate(300px, 0px)
	 		}
	 	}
	 	@-moz-keyframes anim1 {
	 		0%{
	 			-moz-transform: translate(0px, 0px);
	 			     transform: translate(0px, 0px)
	 		}
	 		48%,100%{
	 			-moz-transform: translate(300px, 0px);
	 			     transform: translate(300px, 0px)
	 		}
	 	}
	 	@-o-keyframes anim1 {
	 		0%{
	 			-o-transform: translate(0px, 0px);
	 			   transform: translate(0px, 0px)
	 		}
	 		48%,100%{
	 			-o-transform: translate(300px, 0px);
	 			   transform: translate(300px, 0px)
	 		}
	 	}
	 	@keyframes anim1 {
	 		0%{
	 			-webkit-transform: translate(0px, 0px);
	 			   -moz-transform: translate(0px, 0px);
	 			     -o-transform: translate(0px, 0px);
	 			        transform: translate(0px, 0px)
	 		}
	 		48%,100%{
	 			-webkit-transform: translate(300px, 0px);
	 			   -moz-transform: translate(300px, 0px);
	 			     -o-transform: translate(300px, 0px);
	 			        transform: translate(300px, 0px)
	 		}
	 	}
	 </style>
<g>
	<path fill="#DE9F27" d="M64,48.2c0-6.6-5.4-9.3-11.3-11.2c-5-1.7-7.4-2.7-7.4-5.2c0-2.2,2.3-3.7,5.7-3.7s5.8,1,7.2,1.9l1.1,0.7
		l2.1-5.7l-0.8-0.4c-2.6-1.5-6-2.3-9.5-2.3c-7.7,0-13,4.2-13,10.3c0.1,1.9,0.8,3.9,1.8,5.3c-2.7,2.1-4.2,4.8-4.2,7.7
		c0,6.6,5.9,9.2,12,11.2c6.1,2.1,7.2,3.5,7.2,5.7c0,3.1-3.2,4.3-6.2,4.3c-3.3,0-6.3-1.3-7.9-2.5l-1.1-0.8l-2.4,5.7l0.7,0.5
		c2.6,1.9,6.4,2.9,10.8,2.9c6.7,0,13.4-3.3,13.4-10.8c0-2.3-0.9-4.3-2-5.6C62.8,53.9,64,51.3,64,48.2z M57.1,49
		c0,1.5-0.5,2.8-1.5,3.7c-1.7-0.9-4.3-1.9-6.9-2.8c-5.5-2-6.2-3.8-6.2-5.2c0-1.5,0.6-2.7,2-3.8c1.7,0.9,4,1.7,6,2.5
		c0.5,0.2,1,0.4,1.5,0.6C56.6,45.6,57.1,47.6,57.1,49z"/>
	
		<linearGradient id="SVGID_1_" gradientUnits="userSpaceOnUse" x1="34.0629" y1="41.3694" x2="105.681" y2="112.9874" gradientTransform="matrix(1 0 0 -1 0 102)">
		<stop  offset="0" style="stop-color:#22678F"/>
		<stop  offset="0.3933" style="stop-color:#009ECB"/>
		<stop  offset="0.9939" style="stop-color:#67B3DD"/>
	</linearGradient>
	<path fill="url(#SVGID_1_)" d="M91.7,50.1c-1.7,0-3.4-0.4-5-1c-5.8,21.3-17.8,36.5-35.6,45.1l-0.3,0.2l-0.3-0.1
		c-3.2-1.3-11.3-5-19.5-14c-9.3-10.2-15.7-23.9-19.2-40.8L11.7,39l0.4-0.3c1.5-1.3,2.3-3.1,2.3-5.1c0-3.8-3.1-6.8-6.8-6.8
		c-3.8,0-6.8,3.1-6.8,6.8c0,3.2,2.3,6.1,5.5,6.7l0.5,0.1l0.1,0.5c4.7,22.2,13.8,35.8,20.7,43.2c11.2,12.2,22.3,15.3,22.8,15.5
		l0.9,0.2l0.9-0.4C72.1,90.3,85.8,73.2,92,50.1C91.8,50.1,91.7,50.1,91.7,50.1z M7.6,38.1c-2.5,0-4.6-2-4.6-4.6c0-2.5,2-4.6,4.6-4.6
		c2.5,0,4.6,2,4.6,4.6C12.1,36.1,10.1,38.1,7.6,38.1z"/>
	
		<linearGradient id="SVGID_2_" gradientUnits="userSpaceOnUse" x1="28.1886" y1="49.2322" x2="82.7018" y2="103.7455" gradientTransform="matrix(1 0 0 -1 0 102)">
		<stop  offset="0" style="stop-color:#22678F"/>
		<stop  offset="0.3933" style="stop-color:#009ECB"/>
		<stop  offset="0.9939" style="stop-color:#67B3DD"/>
	</linearGradient>
	<path fill="url(#SVGID_2_)" d="M96,31.8l-0.4-0.3V31c0.8-10,0.1-16.8,0-17.1l-0.1-1.3L94.3,12c-2.7-1.5-5.4-2.8-8.1-4l-0.5-0.2
		L78.4,5c-9.3-3.4-19-5-28.7-5C41,0,32.3,1.3,23.8,3.9l-7.1,2.2l0.2,5.8c7.2-3.1,18.7-6.8,32.7-6.8c13.8,0,27.4,3.5,40.5,10.4
		l0.4,0.2v0.5c0.1,2.4,0.3,7.5-0.2,14v0.5L89.9,31c-2.7,1-4.6,3.6-4.6,6.4c0,3.8,3.1,6.8,6.8,6.8c3.8,0,6.8-3.1,6.8-6.8
		C99,35.2,97.9,33.1,96,31.8z M92.2,42c-2.5,0-4.5-2-4.5-4.5s2-4.5,4.5-4.5s4.5,2,4.5,4.5S94.7,42,92.2,42z"/>
</g>
<g>
	<defs>
		<path id="SVGID_3_" d="M64,48.2c0-6.6-5.4-9.3-11.3-11.2c-5-1.7-7.4-2.7-7.4-5.2c0-2.2,2.3-3.7,5.7-3.7s5.8,1,7.2,1.9l1.1,0.7
			l2.1-5.7l-0.8-0.4c-2.6-1.5-6-2.3-9.5-2.3c-7.7,0-13,4.2-13,10.3c0.1,1.9,0.8,3.9,1.8,5.3c-2.7,2.1-4.2,4.8-4.2,7.7
			c0,6.6,5.9,9.2,12,11.2c6.1,2.1,7.2,3.5,7.2,5.7c0,3.1-3.2,4.3-6.2,4.3c-3.3,0-6.3-1.3-7.9-2.5l-1.1-0.8l-2.4,5.7l0.7,0.5
			c2.6,1.9,6.4,2.9,10.8,2.9c6.7,0,13.4-3.3,13.4-10.8c0-2.3-0.9-4.3-2-5.6C62.8,53.9,64,51.3,64,48.2z M57.1,49
			c0,1.5-0.5,2.8-1.5,3.7c-1.7-0.9-4.3-1.9-6.9-2.8c-5.5-2-6.2-3.8-6.2-5.2c0-1.5,0.6-2.7,2-3.8c1.7,0.9,4,1.7,6,2.5
			c0.5,0.2,1,0.4,1.5,0.6C56.6,45.6,57.1,47.6,57.1,49z M91.7,50.1c-1.7,0-3.4-0.4-5-1c-5.8,21.3-17.8,36.5-35.6,45.1l-0.3,0.2
			l-0.3-0.1c-3.2-1.3-11.3-5-19.5-14c-9.3-10.2-15.7-23.9-19.2-40.8L11.7,39l0.4-0.3c1.5-1.3,2.3-3.1,2.3-5.1c0-3.8-3.1-6.8-6.8-6.8
			c-3.8,0-6.8,3.1-6.8,6.8c0,3.2,2.3,6.1,5.5,6.7l0.5,0.1l0.1,0.5c4.7,22.2,13.8,35.8,20.7,43.2c11.2,12.2,22.3,15.3,22.8,15.5
			l0.9,0.2l0.9-0.4C72.1,90.3,85.8,73.2,92,50.1C91.8,50.1,91.7,50.1,91.7,50.1z M7.6,38.1c-2.5,0-4.6-2-4.6-4.6
			c0-2.5,2-4.6,4.6-4.6c2.5,0,4.6,2,4.6,4.6C12.1,36.1,10.1,38.1,7.6,38.1z M96,31.8l-0.4-0.3V31c0.8-10,0.1-16.8,0-17.1l-0.1-1.3
			L94.3,12c-2.7-1.5-5.4-2.8-8.1-4l-0.5-0.2L78.4,5c-9.3-3.4-19-5-28.7-5C41,0,32.3,1.3,23.8,3.9l-7.1,2.2l0.2,5.8
			c7.2-3.1,18.7-6.8,32.7-6.8c13.8,0,27.4,3.5,40.5,10.4l0.4,0.2v0.5c0.1,2.4,0.3,7.5-0.2,14v0.5L89.9,31c-2.7,1-4.6,3.6-4.6,6.4
			c0,3.8,3.1,6.8,6.8,6.8c3.8,0,6.8-3.1,6.8-6.8C99,35.2,97.9,33.1,96,31.8z M92.2,42c-2.5,0-4.5-2-4.5-4.5s2-4.5,4.5-4.5
			s4.5,2,4.5,4.5S94.7,42,92.2,42z"/>
	</defs>
	<clipPath id="SVGID_4_">
		<use xlink:href="#SVGID_3_"  overflow="visible"/>
	</clipPath>
	<g clip-path="url(#SVGID_4_)">
		<g id="gMoveT">
			<g>
				<polygon opacity="0" fill="#FFFFFF" points="-65.66,180.83 -244.62,180.83 -178.96,-113.83 0,-113.83 				"/>
				<polygon opacity="9.803922e-04" fill="#FFFFFD" points="-1.58,-113.83 -67.23,180.83 -243,180.83 -177.35,-113.83 				"/>
				<polygon opacity="1.960784e-03" fill="#FEFFFC" points="-3.16,-113.83 -68.81,180.83 -241.39,180.83 -175.73,-113.83 				"/>
				<polygon opacity="2.941177e-03" fill="#FEFFFA" points="-4.74,-113.83 -70.39,180.83 -239.77,180.83 -174.12,-113.83 				"/>
				<polygon opacity="3.921569e-03" fill="#FEFFF9" points="-6.31,-113.83 -71.97,180.83 -238.16,180.83 -172.5,-113.83 				"/>
				<polygon opacity="4.901961e-03" fill="#FEFFF7" points="-7.89,-113.83 -73.55,180.83 -236.54,180.83 -170.89,-113.83 				"/>
				<polygon opacity="5.882353e-03" fill="#FDFFF5" points="-9.47,-113.83 -75.13,180.83 -234.93,180.83 -169.27,-113.83 				"/>
				<polygon opacity="6.862745e-03" fill="#FDFFF4" points="-11.05,-113.83 -76.7,180.83 -233.31,180.83 -167.66,-113.83 				"/>
				<polygon opacity="7.843138e-03" fill="#FDFFF2" points="-12.63,-113.83 -78.28,180.83 -231.7,180.83 -166.04,-113.83 				"/>
				<polygon opacity="8.823530e-03" fill="#FCFFF1" points="-14.21,-113.83 -79.86,180.83 -230.08,180.83 -164.43,-113.83 				"/>
				<polygon opacity="9.803922e-03" fill="#FCFFEF" points="-15.78,-113.83 -81.44,180.83 -228.47,180.83 -162.81,-113.83 				"/>
				<polygon opacity="0.0108" fill="#FCFFED" points="-17.36,-113.83 -83.02,180.83 -226.85,180.83 -161.2,-113.83 				"/>
				<polygon opacity="0.0118" fill="#FBFFEC" points="-18.94,-113.83 -84.6,180.83 -225.24,180.83 -159.58,-113.83 				"/>
				<polygon opacity="0.0127" fill="#FBFFEA" points="-20.52,-113.83 -86.18,180.83 -223.62,180.83 -157.97,-113.83 				"/>
				<polygon opacity="0.0137" fill="#FBFFE8" points="-22.1,-113.83 -87.75,180.83 -222.01,180.83 -156.35,-113.83 				"/>
				<polygon opacity="0.0147" fill="#FBFFE7" points="-23.68,-113.83 -89.33,180.83 -220.39,180.83 -154.74,-113.83 				"/>
				<polygon opacity="0.0157" fill="#FAFFE5" points="-25.25,-113.83 -90.91,180.83 -218.78,180.83 -153.12,-113.83 				"/>
				<polygon opacity="0.0167" fill="#FAFFE4" points="-26.83,-113.83 -92.49,180.83 -217.16,180.83 -151.51,-113.83 				"/>
				<polygon opacity="0.0176" fill="#FAFFE2" points="-28.41,-113.83 -94.07,180.83 -215.55,180.83 -149.89,-113.83 				"/>
				<polygon opacity="0.0186" fill="#F9FFE0" points="-29.99,-113.83 -95.65,180.83 -213.93,180.83 -148.28,-113.83 				"/>
				<polygon opacity="0.0196" fill="#F9FFDF" points="-31.57,-113.83 -97.22,180.83 -212.32,180.83 -146.66,-113.83 				"/>
				<polygon opacity="0.0206" fill="#F9FFDD" points="-33.15,-113.83 -98.8,180.83 -210.7,180.83 -145.05,-113.83 				"/>
				<polygon opacity="0.0216" fill="#F9FFDC" points="-34.72,-113.83 -100.38,180.83 -209.09,180.83 -143.43,-113.83 				"/>
				<polygon opacity="0.0225" fill="#F8FFDA" points="-36.3,-113.83 -101.96,180.83 -207.47,180.83 -141.82,-113.83 				"/>
				<polygon opacity="0.0235" fill="#F8FFD8" points="-37.88,-113.83 -103.54,180.83 -205.86,180.83 -140.2,-113.83 				"/>
				<polygon opacity="0.0245" fill="#F8FFD7" points="-39.46,-113.83 -105.12,180.83 -204.24,180.83 -138.59,-113.83 				"/>
				<polygon opacity="0.0255" fill="#F7FFD5" points="-41.04,-113.83 -106.69,180.83 -202.63,180.83 -136.97,-113.83 				"/>
				<polygon opacity="0.0265" fill="#F7FFD4" points="-42.62,-113.83 -108.27,180.83 -201.01,180.83 -135.36,-113.83 				"/>
				<polygon opacity="0.0275" fill="#F7FFD2" points="-44.19,-113.83 -109.85,180.83 -199.4,180.83 -133.74,-113.83 				"/>
				<polygon opacity="0.0284" fill="#F6FFD0" points="-45.77,-113.83 -111.43,180.83 -197.78,180.83 -132.12,-113.83 				"/>
				<polygon opacity="0.0294" fill="#F6FFCF" points="-47.35,-113.83 -113.01,180.83 -196.17,180.83 -130.51,-113.83 				"/>
				<polygon opacity="0.0304" fill="#F6FFCD" points="-48.93,-113.83 -114.59,180.83 -194.55,180.83 -128.89,-113.83 				"/>
				<polygon opacity="0.0314" fill="#F6FFCC" points="-50.51,-113.83 -116.16,180.83 -192.94,180.83 -127.28,-113.83 				"/>
				<polygon opacity="0.0324" fill="#F5FFCA" points="-52.09,-113.83 -117.74,180.83 -191.32,180.83 -125.66,-113.83 				"/>
				<polygon opacity="0.0333" fill="#F5FFC8" points="-53.66,-113.83 -119.32,180.83 -189.71,180.83 -124.05,-113.83 				"/>
				<polygon opacity="0.0343" fill="#F5FFC7" points="-55.24,-113.83 -120.9,180.83 -188.09,180.83 -122.43,-113.83 				"/>
				<polygon opacity="0.0353" fill="#F4FFC5" points="-56.82,-113.83 -122.48,180.83 -186.48,180.83 -120.82,-113.83 				"/>
				<polygon opacity="0.0363" fill="#F4FFC4" points="-58.4,-113.83 -124.06,180.83 -184.86,180.83 -119.2,-113.83 				"/>
				<polygon opacity="0.0373" fill="#F4FFC2" points="-59.98,-113.83 -125.63,180.83 -183.25,180.83 -117.59,-113.83 				"/>
				<polygon opacity="0.0382" fill="#F4FFC0" points="-61.56,-113.83 -127.21,180.83 -181.63,180.83 -115.97,-113.83 				"/>
				<polygon opacity="0.0392" fill="#F3FFBF" points="-63.13,-113.83 -128.79,180.83 -180.02,180.83 -114.36,-113.83 				"/>
				<polygon opacity="0.0402" fill="#F3FFBD" points="-64.71,-113.83 -130.37,180.83 -178.4,180.83 -112.74,-113.83 				"/>
				<polygon opacity="0.0412" fill="#F3FFBB" points="-66.29,-113.83 -131.95,180.83 -176.78,180.83 -111.13,-113.83 				"/>
				<polygon opacity="0.0422" fill="#F2FFBA" points="-67.87,-113.83 -133.53,180.83 -175.17,180.83 -109.51,-113.83 				"/>
				<polygon opacity="0.0431" fill="#F2FFB8" points="-69.45,-113.83 -135.1,180.83 -173.55,180.83 -107.9,-113.83 				"/>
				<polygon opacity="0.0441" fill="#F2FFB7" points="-71.03,-113.83 -136.68,180.83 -171.94,180.83 -106.28,-113.83 				"/>
				<polygon opacity="0.0451" fill="#F1FFB5" points="-72.61,-113.83 -138.26,180.83 -170.32,180.83 -104.67,-113.83 				"/>
				<polygon opacity="0.0461" fill="#F1FFB3" points="-74.18,-113.83 -139.84,180.83 -168.71,180.83 -103.05,-113.83 				"/>
				<polygon opacity="0.0471" fill="#F1FFB2" points="-75.76,-113.83 -141.42,180.83 -167.09,180.83 -101.44,-113.83 				"/>
				<polygon opacity="0.048" fill="#F1FFB0" points="-77.34,-113.83 -143,180.83 -165.48,180.83 -99.82,-113.83 				"/>
				<polygon opacity="0.049" fill="#F0FFAF" points="-78.92,-113.83 -144.57,180.83 -163.86,180.83 -98.21,-113.83 				"/>
				<polygon opacity="0.05" fill="#F0FFAD" points="-146.15,180.83 -162.25,180.83 -96.59,-113.83 -80.5,-113.83 				"/>
			</g>
		</g>
	</g>
</g>
</svg>
